# xmcd
# 
# Track frame offsets:
#     150
#     20619
#     33475
#     50407
#     65602
#     77885
#     94505
#     118854
#     134735
#     155615
#     172832
#     192557
#     210272
#     230775
#     247992
#     263430
#     276300
#     287862
# 
# Disc length: 4164
# 
# Revision: 1
# Processed by: cddbd v1.5.2PL0 Copyright (c) Steve Scherf et al.
# Submitted via: BonkEnc v1.0.8
# 
DISCID=08104212
DTITLE=ALBERT KING - BEST BLUES MASTERS VOL.2
DYEAR=1998
DGENRE=Blues
TTITLE0=GOT TO BE SOME CHANGES MADE
TTITLE1=YOU'RE GONNA NEED ME
TTITLE2=FUNK-SHUN (INSTRUMENTAL)
TTITLE3=THE HUNTER (ALTERNATE TAKE)
TTITLE4=HEART FIXING BUSINESS
TTITLE5=CAN'T YOU SEE WHAT YOU'RE DOING TO ME
TTITLE6=LIKE A ROAD LEADING HOME
TTITLE7=DON'T YOU LIE TO ME
TTITLE8=I BELIEVE TO MY SOUL
TTITLE9=LOVEJOY, ILL.
TTITLE10=ANGEL OF MERCY
TTITLE11=THAT'S WHAT THE BLUES IS ALL ABOUT
TTITLE12=BORN UNDER A BAD SIGN (LIVE VERSION)
TTITLE13=CROSSCUT SAW (LIVE VERSION)
TTITLE14=PLAYING ON ME
TTITLE15=AS THE YEARS GO PASSING BY
TTITLE16=ALBERT'S GROOVE #2 (INSTRUMENTAL)
TTITLE17=THE BLUES DON'T CHANGE
EXTD=
EXTT0=
EXTT1=
EXTT2=
EXTT3=
EXTT4=
EXTT5=
EXTT6=
EXTT7=
EXTT8=
EXTT9=
EXTT10=
EXTT11=
EXTT12=
EXTT13=
EXTT14=
EXTT15=
EXTT16=
EXTT17=
PLAYORDER=
